<svg xmlns="http://www.w3.org/2000/svg" xmlns:xlink="http://www.w3.org/1999/xlink" width="500" zoomAndPan="magnify" viewBox="0 0 375 374.999991" height="500" preserveAspectRatio="xMidYMid meet" version="1.0"><defs><g/><clipPath id="id1"><path d="M 37.5 121.214844 L 141.75 121.214844 L 141.75 253.964844 L 37.5 253.964844 Z M 37.5 121.214844 " clip-rule="nonzero"/></clipPath></defs><g clip-path="url(#id1)"><path fill="#8e2530" d="M 89.632812 215.667969 C 66.472656 215.667969 47.703125 196.816406 47.703125 173.5625 C 47.703125 150.304688 66.472656 131.449219 89.632812 131.449219 C 112.785156 131.449219 131.554688 150.304688 131.554688 173.5625 C 131.554688 196.816406 112.785156 215.667969 89.632812 215.667969 Z M 89.632812 121.21875 C 60.851562 121.21875 37.515625 144.65625 37.515625 173.5625 C 37.515625 219.570312 88.816406 253.4375 89.625 253.972656 C 89.632812 253.972656 89.632812 253.972656 89.632812 253.972656 C 89.632812 253.972656 141.742188 219.933594 141.742188 173.5625 C 141.742188 144.65625 118.410156 121.21875 89.632812 121.21875 " fill-opacity="1" fill-rule="nonzero"/></g><path fill="#8e2530" d="M 83.289062 170.765625 L 95.96875 170.765625 C 96.605469 170.765625 97.121094 171.28125 97.121094 171.921875 L 97.121094 184.289062 C 97.121094 184.929688 96.605469 185.449219 95.96875 185.449219 L 83.289062 185.449219 C 82.652344 185.449219 82.136719 184.929688 82.136719 184.289062 L 82.136719 171.921875 C 82.136719 171.28125 82.652344 170.765625 83.289062 170.765625 Z M 115.542969 164.8125 L 91.609375 148.691406 C 91.070312 148.324219 90.367188 148.121094 89.625 148.121094 C 88.894531 148.121094 88.1875 148.324219 87.648438 148.683594 L 63.714844 164.8125 C 63.671875 164.839844 63.625 164.875 63.589844 164.917969 C 62.527344 165.984375 62.652344 166.839844 62.828125 167.253906 C 63 167.675781 63.511719 168.378906 65.015625 168.378906 L 70.964844 168.378906 L 70.964844 190.5625 C 70.964844 192.578125 72.59375 194.21875 74.597656 194.21875 L 104.660156 194.21875 C 106.664062 194.21875 108.292969 192.578125 108.292969 190.5625 L 108.292969 168.378906 L 114.246094 168.378906 C 115.746094 168.378906 116.257812 167.675781 116.429688 167.253906 C 116.597656 166.839844 116.730469 165.984375 115.671875 164.917969 C 115.628906 164.875 115.585938 164.839844 115.542969 164.8125 " fill-opacity="1" fill-rule="nonzero"/><g fill="#5b5452" fill-opacity="1"><g transform="translate(150.665372, 214.499986)"><g><path d="M 31.25 0.5625 C 26.09375 0.5625 21.347656 -0.644531 17.015625 -3.0625 C 12.691406 -5.488281 9.265625 -8.863281 6.734375 -13.1875 C 4.210938 -17.519531 2.953125 -22.398438 2.953125 -27.828125 C 2.953125 -33.242188 4.210938 -38.101562 6.734375 -42.40625 C 9.265625 -46.71875 12.691406 -50.082031 17.015625 -52.5 C 21.347656 -54.925781 26.09375 -56.140625 31.25 -56.140625 C 36.457031 -56.140625 41.226562 -54.925781 45.5625 -52.5 C 49.894531 -50.082031 53.3125 -46.71875 55.8125 -42.40625 C 58.3125 -38.101562 59.5625 -33.242188 59.5625 -27.828125 C 59.5625 -22.398438 58.3125 -17.519531 55.8125 -13.1875 C 53.3125 -8.863281 49.894531 -5.488281 45.5625 -3.0625 C 41.226562 -0.644531 36.457031 0.5625 31.25 0.5625 Z M 31.25 -7.328125 C 34.914062 -7.328125 38.1875 -8.164062 41.0625 -9.84375 C 43.9375 -11.519531 46.179688 -13.910156 47.796875 -17.015625 C 49.421875 -20.128906 50.234375 -23.734375 50.234375 -27.828125 C 50.234375 -31.921875 49.421875 -35.507812 47.796875 -38.59375 C 46.179688 -41.675781 43.9375 -44.039062 41.0625 -45.6875 C 38.1875 -47.332031 34.914062 -48.15625 31.25 -48.15625 C 27.582031 -48.15625 24.3125 -47.332031 21.4375 -45.6875 C 18.570312 -44.039062 16.328125 -41.675781 14.703125 -38.59375 C 13.085938 -35.507812 12.28125 -31.921875 12.28125 -27.828125 C 12.28125 -23.734375 13.085938 -20.128906 14.703125 -17.015625 C 16.328125 -13.910156 18.570312 -11.519531 21.4375 -9.84375 C 24.3125 -8.164062 27.582031 -7.328125 31.25 -7.328125 Z M 31.25 -7.328125 "/></g></g></g><g fill="#5b5452" fill-opacity="1"><g transform="translate(213.176979, 214.499986)"><g><path d="M 10.921875 -63.546875 L 9.96875 -47.203125 L 3.75 -47.203125 L 2.71875 -63.546875 Z M 10.921875 -63.546875 "/></g></g></g><g fill="#5b5452" fill-opacity="1"><g transform="translate(226.891258, 214.499986)"><g><path d="M 28.140625 -44.65625 C 31.597656 -44.65625 34.695312 -43.9375 37.4375 -42.5 C 40.175781 -41.0625 42.316406 -38.929688 43.859375 -36.109375 C 45.398438 -33.296875 46.171875 -29.894531 46.171875 -25.90625 L 46.171875 0 L 37.15625 0 L 37.15625 -24.5625 C 37.15625 -28.488281 36.171875 -31.5 34.203125 -33.59375 C 32.234375 -35.695312 29.550781 -36.75 26.15625 -36.75 C 22.75 -36.75 20.046875 -35.695312 18.046875 -33.59375 C 16.054688 -31.5 15.0625 -28.488281 15.0625 -24.5625 L 15.0625 0 L 5.984375 0 L 5.984375 -43.9375 L 15.0625 -43.9375 L 15.0625 -38.90625 C 16.550781 -40.71875 18.453125 -42.128906 20.765625 -43.140625 C 23.078125 -44.148438 25.535156 -44.65625 28.140625 -44.65625 Z M 28.140625 -44.65625 "/></g></g></g><g fill="#5b5452" fill-opacity="1"><g transform="translate(278.63876, 214.499986)"><g><path d="M 35.640625 -28.46875 C 38.617188 -27.9375 41.144531 -26.367188 43.21875 -23.765625 C 45.289062 -21.160156 46.328125 -18.207031 46.328125 -14.90625 C 46.328125 -12.09375 45.59375 -9.554688 44.125 -7.296875 C 42.664062 -5.035156 40.550781 -3.253906 37.78125 -1.953125 C 35.019531 -0.648438 31.804688 0 28.140625 0 L 5.984375 0 L 5.984375 -55.421875 L 27.109375 -55.421875 C 30.878906 -55.421875 34.117188 -54.78125 36.828125 -53.5 C 39.546875 -52.226562 41.59375 -50.515625 42.96875 -48.359375 C 44.351562 -46.203125 45.046875 -43.796875 45.046875 -41.140625 C 45.046875 -37.953125 44.195312 -35.296875 42.5 -33.171875 C 40.800781 -31.046875 38.515625 -29.476562 35.640625 -28.46875 Z M 15.0625 -32.140625 L 26.3125 -32.140625 C 29.289062 -32.140625 31.613281 -32.816406 33.28125 -34.171875 C 34.957031 -35.523438 35.796875 -37.476562 35.796875 -40.03125 C 35.796875 -42.53125 34.957031 -44.484375 33.28125 -45.890625 C 31.613281 -47.296875 29.289062 -48 26.3125 -48 L 15.0625 -48 Z M 27.34375 -7.421875 C 30.425781 -7.421875 32.84375 -8.160156 34.59375 -9.640625 C 36.351562 -11.128906 37.234375 -13.203125 37.234375 -15.859375 C 37.234375 -18.578125 36.300781 -20.734375 34.4375 -22.328125 C 32.582031 -23.921875 30.113281 -24.71875 27.03125 -24.71875 L 15.0625 -24.71875 L 15.0625 -7.421875 Z M 27.34375 -7.421875 "/></g></g></g></svg>